<svg width="40.000000" height="26.000000" viewBox="0 0 40 26" fill="none"
    xmlns="http://www.w3.org/2000/svg" xmlns:xlink="http://www.w3.org/1999/xlink">
    <defs />
    <path id="Стрелка"
        d="M30.55 7.98C22.82 8.69 15.04 9.36 7.32 10.07C7.29 10.25 7.3 10.52 7.28 10.71C9.93 11.55 12.64 12.41 15.27 13.31C16.81 13.83 18.32 14.42 19.73 15.21C22.66 16.85 22.73 19.46 19.96 21.2C19.02 21.77 17.95 22.34 16.89 22.59C11.74 23.76 6.58 24.8 1.45 25.92C1.08 25.99 0.66 26.04 0.31 25.93C0.02 25.84 -0.43 25.54 -0.49 25.25C-0.55 24.82 -0.43 24.16 -0.11 24.06C0.83 23.62 1.78 23.32 2.77 23.04C6.85 22.04 11.03 21.09 15.14 20.04C16.35 19.74 17.52 19.09 19.28 18.34C17.84 17.6 17.04 17.06 16.14 16.73C12.05 15.41 7.91 14.2 3.83 12.89C2.9 12.61 1.94 12.38 1.17 11.78C0.47 11.29 -0.31 10.43 -0.45 9.63C-0.68 8.45 0.31 7.78 1.39 7.48C2.39 7.2 3.39 6.92 4.44 6.8C10.66 6.18 16.8 5.58 23.03 4.96C24 4.87 25 4.73 26.61 4.57C23.44 2.87 20.18 3.43 17.44 0.7C18.67 0.34 19.43 0.01 20.17 0C25.96 0.14 31.7 1.18 37.33 2.76C39.69 3.38 40.2 5.36 38.48 7.12C37.7 7.9 36.82 8.64 35.79 9.1C33.02 10.44 30.21 11.7 27.35 12.93C26.85 13.14 25.96 13.07 25.63 12.77C24.99 12.05 25.48 11.31 26.16 10.87C27.62 9.9 29.19 9 30.68 8.12C30.63 8.22 30.57 8.06 30.55 7.98Z"
        fill="#FFFFFF" fill-opacity="1.000000" fill-rule="nonzero" />
</svg>