<svg width="33.000000" height="33.000000" viewBox="0 0 33 33" fill="none"
    xmlns="http://www.w3.org/2000/svg" xmlns:xlink="http://www.w3.org/1999/xlink">
    <defs />
    <rect id="3" rx="7.333333" width="33.000000" height="33.000000" fill="#393939"
        fill-opacity="1.000000" />
    <g opacity="0.000000" />
    <path id="Vector"
        d="M20.47 16.94C17.62 16.94 15.3 14.62 15.3 11.77C15.3 8.91 17.62 6.59 20.47 6.59C23.33 6.59 25.65 8.91 25.65 11.77C25.65 14.62 23.33 16.94 20.47 16.94ZM11.17 24.18C9.45 24.18 8.06 22.79 8.06 21.07C8.06 19.36 9.45 17.97 11.17 17.97C12.88 17.97 14.27 19.36 14.27 21.07C14.27 22.79 12.88 24.18 11.17 24.18ZM21.51 26.76C20.09 26.76 18.93 25.61 18.93 24.18C18.93 22.75 20.09 21.6 21.51 21.6C22.94 21.6 24.09 22.75 24.09 24.18C24.09 25.61 22.94 26.76 21.51 26.76Z"
        stroke="#FFFFFF" stroke-opacity="1.000000" stroke-width="1.100000" />
</svg>