<svg width="22.000000" height="22.000000" viewBox="0 0 22 22" fill="none"
    xmlns="http://www.w3.org/2000/svg" xmlns:xlink="http://www.w3.org/1999/xlink">
    <defs />
    <path id="Vector"
        d="M18.77 3.22C16.7 1.14 13.93 0 11 0C8.06 0 5.29 1.14 3.22 3.22C1.14 5.29 0 8.06 0 11C0 13.93 1.14 16.7 3.22 18.77C5.29 20.85 8.06 22 11 22C13.93 22 16.7 20.85 18.77 18.77C20.85 16.7 22 13.93 22 11C22 8.06 20.85 5.29 18.77 3.22ZM11 20.28C5.88 20.28 1.71 16.11 1.71 11C1.71 5.88 5.88 1.71 11 1.71C16.11 1.71 20.28 5.88 20.28 11C20.28 16.11 16.11 20.28 11 20.28ZM11.42 6.75C12.01 6.75 12.5 6.26 12.5 5.67C12.5 5.08 12.01 4.6 11.42 4.6C10.83 4.6 10.35 5.08 10.35 5.67C10.35 6.26 10.83 6.75 11.42 6.75ZM11.59 15.69C11.65 15.74 11.79 15.81 11.96 15.73L13.02 15.21L13.78 16.75L12.72 17.27C12.43 17.41 12.11 17.48 11.8 17.48C11.37 17.48 10.93 17.34 10.57 17.08C9.94 16.62 9.62 15.85 9.74 15.08L10.48 10.17C10.51 9.98 10.4 9.87 10.34 9.82C10.27 9.77 10.13 9.7 9.96 9.79L8.9 10.31L8.14 8.76L9.2 8.24C9.9 7.9 10.73 7.98 11.35 8.44C11.98 8.9 12.3 9.66 12.18 10.43L11.44 15.34C11.41 15.53 11.52 15.64 11.59 15.69Z"
        fill="#FFFFFF" fill-opacity="1.000000" fill-rule="evenodd" />
</svg>