<svg width="55.000000" height="55.000000" viewBox="0 0 55 55" fill="none"
    xmlns="http://www.w3.org/2000/svg" xmlns:xlink="http://www.w3.org/1999/xlink">
    <defs>
        <clipPath id="clip81_2480">
            <rect id="Иконка" rx="14.000000" width="53.000000" height="53.000000"
                transform="translate(1.000000 1.000000)" fill="white" fill-opacity="0" />
        </clipPath>
    </defs>
    <g clip-path="url(#clip81_2480)">
        <path id="Vector"
            d="M31.36 11.54L29.47 24.26L39.51 24.26C39.78 24.26 40 24.48 40 24.74C40 24.86 39.95 24.97 39.88 25.05L25.49 44.8C25.33 45.01 25.03 45.06 24.82 44.9C24.67 44.8 24.6 44.62 24.63 44.45L26.52 31.73L16.48 31.73C16.21 31.73 16 31.51 16 31.25C16 31.13 16.04 31.02 16.11 30.93L30.5 11.19C30.66 10.98 30.96 10.93 31.17 11.09C31.32 11.2 31.39 11.37 31.36 11.54Z"
            fill="#FFFFFF" fill-opacity="1.000000" fill-rule="nonzero" />
    </g>
    <rect id="Иконка" rx="14.000000" width="53.000000" height="53.000000"
        transform="translate(1.000000 1.000000)" stroke="#848484" stroke-opacity="1.000000"
        stroke-width="2.000000" />
</svg>