<svg width="130.000000" height="36.000000" viewBox="0 0 130 36" fill="none"
    xmlns="http://www.w3.org/2000/svg" xmlns:xlink="http://www.w3.org/1999/xlink">
    <path id="Logo"
        d="M65.15 17.9C64.99 17.89 64.84 17.88 64.69 17.88C64.62 17.88 64.56 17.88 64.49 17.88C64.45 17.88 64.41 17.88 64.36 17.88C64.46 17.75 64.53 17.65 64.62 17.54C67.7 13.62 70.78 9.7 73.86 5.77C75.01 4.31 76.15 2.86 77.29 1.39C77.82 0.69 78.52 0.27 79.38 0.11C80.26 -0.05 81.14 -0.04 82.03 0.13C82.47 0.22 82.8 0.45 83.09 0.77C83.74 1.46 84.28 2.24 84.85 3C85.69 4.12 86.54 5.23 87.38 6.34C89.13 8.62 90.87 10.91 92.61 13.19C93.76 14.69 94.91 16.18 96.06 17.67C96.09 17.71 96.11 17.75 96.15 17.8L75.07 17.8C75.09 17.76 75.11 17.73 75.13 17.7C75.55 17.14 75.98 16.6 76.39 16.04C76.64 15.71 76.99 15.54 77.39 15.47C77.6 15.44 77.81 15.42 78.02 15.42C82.09 15.41 86.15 15.41 90.22 15.41L90.39 15.41L80.31 2.41C80.23 2.51 80.15 2.59 80.09 2.68C77.93 5.43 75.78 8.18 73.63 10.93C72.04 12.99 70.45 15.05 68.87 17.11C68.54 17.54 68.14 17.85 67.57 17.88C67.56 17.88 67.55 17.9 67.54 17.9L65.15 17.9L65.15 17.9ZM27.76 0.15C27.72 0.2 27.7 0.24 27.68 0.27C27.25 0.82 26.82 1.37 26.39 1.93C25.78 2.73 24.95 3.05 23.95 3.03C22.84 3.02 21.73 3.03 20.63 3.04L20.63 3.04C20.22 3.04 19.81 3.04 19.4 3.04L19.25 3.04C15.52 3.04 11.8 3.04 8.07 3.04C7.42 3.04 6.77 3.06 6.13 3.09C5.73 3.1 5.33 3.16 4.96 3.3C4.1 3.63 3.58 4.37 3.56 5.28C3.56 5.31 3.56 5.34 3.56 5.38C3.56 5.78 3.63 6.16 3.82 6.52C4.17 7.18 4.75 7.51 5.47 7.63C6.17 7.75 6.87 7.79 7.58 7.79C8.24 7.79 8.91 7.79 9.57 7.79L9.58 7.79C10.02 7.79 10.46 7.79 10.9 7.79C12.39 7.79 13.88 7.78 15.37 7.78C16.43 7.78 17.49 7.78 18.55 7.79C19.66 7.81 20.77 7.82 21.88 7.87C23.16 7.93 24.42 8.17 25.63 8.61C26.8 9.05 27.58 9.86 27.93 11.05C28.1 11.64 28.19 12.23 28.19 12.83C28.19 13.36 28.12 13.89 27.98 14.43C27.62 15.77 26.73 16.64 25.45 17.13C24.29 17.58 23.09 17.84 21.84 17.83C21.38 17.83 20.93 17.83 20.47 17.84C20.19 17.84 19.9 17.85 19.62 17.85C17.53 17.86 15.44 17.86 13.35 17.87C10.6 17.87 7.85 17.88 5.11 17.87C3.59 17.87 2.08 17.87 0.57 17.87L0.4 17.87C0.42 17.83 0.44 17.81 0.45 17.79C0.81 17.31 1.15 16.83 1.51 16.37C2.21 15.47 3.15 15 4.28 15C8.81 14.98 13.33 14.99 17.86 14.98C19.04 14.98 20.23 14.98 21.41 14.97C22.12 14.97 22.82 14.91 23.49 14.64C24.23 14.35 24.76 13.87 24.9 13.06C24.93 12.88 24.94 12.71 24.94 12.54C24.94 12.03 24.8 11.56 24.44 11.15C24.1 10.76 23.64 10.56 23.16 10.43C22.59 10.28 22.02 10.24 21.44 10.24C20 10.23 18.57 10.23 17.13 10.23C16.55 10.23 15.96 10.24 15.38 10.24C14.01 10.24 12.64 10.24 11.27 10.24C10.06 10.23 8.84 10.22 7.62 10.2C6.51 10.19 5.41 10.12 4.32 9.89C3.67 9.76 3.02 9.59 2.4 9.34C1.29 8.88 0.56 8.07 0.24 6.92C0.08 6.34 0 5.76 0 5.18C0 4.58 0.08 3.98 0.27 3.38C0.62 2.24 1.39 1.48 2.48 1.02C3.37 0.64 4.3 0.35 5.27 0.24C5.66 0.2 6.05 0.19 6.44 0.18C7.26 0.17 8.07 0.16 8.89 0.16C13.63 0.15 18.37 0.15 23.12 0.14C24.11 0.14 25.11 0.14 26.1 0.14C26.6 0.14 27.1 0.14 27.59 0.14L27.76 0.14L27.76 0.15ZM47.29 17.9C47.02 17.89 46.76 17.86 46.49 17.86C45.66 17.83 44.83 17.82 44 17.78C43.13 17.74 42.26 17.69 41.4 17.61C40.12 17.5 38.86 17.28 37.66 16.8C35.81 16.05 34.31 14.88 33.32 13.12C32.82 12.25 32.51 11.31 32.39 10.31C32.34 9.89 32.32 9.48 32.32 9.07C32.32 7.31 32.78 5.65 33.73 4.1C34.46 2.89 35.55 2.05 36.82 1.45C37.85 0.96 38.93 0.66 40.05 0.45C41.02 0.28 42 0.18 42.99 0.16C43.84 0.15 44.68 0.15 45.53 0.14C45.7 0.14 45.87 0.14 46.04 0.14C46.32 0.14 46.61 0.14 46.89 0.14C47.91 0.14 48.93 0.14 49.95 0.15C50.96 0.17 51.97 0.21 52.97 0.26C53.79 0.3 54.6 0.37 55.41 0.46C56.64 0.6 57.83 0.89 58.95 1.42C60.66 2.25 61.87 3.54 62.59 5.3C62.96 6.22 63.17 7.17 63.28 8.15C63.31 8.5 63.33 8.84 63.33 9.18C63.33 10.38 63.1 11.56 62.58 12.68C61.8 14.35 60.54 15.57 58.91 16.41C57.87 16.94 56.76 17.3 55.6 17.44C54.71 17.56 53.82 17.64 52.92 17.71C52.3 17.76 51.67 17.76 51.05 17.79C50.1 17.82 49.15 17.85 48.2 17.88C48.17 17.89 48.14 17.89 48.12 17.9L47.29 17.9ZM114.66 7.78L130 17.87C129.91 17.87 129.87 17.88 129.82 17.88L125.39 17.87C125.31 17.87 125.23 17.87 125.15 17.86C125.04 17.86 124.93 17.86 124.82 17.86C124.64 17.86 124.49 17.79 124.34 17.7C123.99 17.47 123.64 17.24 123.28 17.01L114.18 10.98C113.78 10.72 113.39 10.45 112.99 10.19C112.62 9.94 112.21 9.78 111.75 9.79C111.32 9.8 110.95 9.97 110.59 10.19C108.72 11.33 106.85 12.46 104.97 13.59C104.82 13.68 104.68 13.78 104.54 13.88C104.05 14.26 103.81 14.77 103.81 15.38C103.81 15.76 103.81 16.15 103.81 16.54C103.81 16.92 103.81 17.31 103.81 17.7L103.81 17.86L100.51 17.86L100.51 0.17L103.82 0.17L103.82 9.75C103.82 10.35 104.32 10.74 104.9 10.58C104.98 10.56 105.05 10.51 105.12 10.47C109.22 7.92 113.32 5.37 117.42 2.81C118.65 2.05 119.88 1.3 121.1 0.55C121.54 0.28 122.01 0.14 122.53 0.15C123.58 0.15 124.63 0.15 125.68 0.15C126.1 0.15 126.52 0.15 126.94 0.15L127.09 0.15L127.11 0.18L114.66 7.78ZM49.4 14.96L49.4 14.97C49.72 14.97 50.05 14.97 50.37 14.97C51.22 14.97 52.07 14.97 52.93 14.96C53.27 14.96 53.62 14.95 53.96 14.9C54.86 14.79 55.74 14.58 56.57 14.22C57.97 13.61 58.98 12.63 59.45 11.16C59.67 10.45 59.78 9.74 59.78 9.02C59.78 8.42 59.7 7.82 59.56 7.22C59.32 6.24 58.85 5.38 58.13 4.67C57.37 3.91 56.45 3.45 55.41 3.2C54.04 2.86 52.64 2.76 51.24 2.75C49.89 2.74 48.54 2.75 47.2 2.77L46.97 2.77C46.26 2.78 45.55 2.8 44.83 2.82C43.74 2.86 42.65 2.92 41.57 3.08C40.72 3.2 39.89 3.38 39.09 3.71C37.63 4.31 36.62 5.34 36.18 6.87C35.99 7.54 35.9 8.22 35.9 8.91C35.9 9.4 35.94 9.89 36.03 10.38C36.34 12.12 37.31 13.36 38.9 14.11C40.09 14.67 41.33 14.96 42.65 14.94C43.21 14.93 43.76 14.94 44.32 14.95C44.67 14.95 45.03 14.96 45.38 14.96C46.34 14.96 47.3 14.96 48.25 14.96L48.25 14.96C48.64 14.96 49.02 14.96 49.4 14.96ZM0 30.89L1.96 30.89L1.96 30.93C1.96 31.25 2.1 31.46 2.24 31.58C2.61 31.93 3.26 31.96 3.62 31.96C4.17 31.96 4.46 31.9 4.65 31.8C4.97 31.64 5.12 31.35 5.12 31.11C5.12 30.96 5.05 30.69 4.62 30.52C4.41 30.44 3.88 30.34 3.62 30.3L2.59 30.14C1.81 30.02 0.9 29.88 0.44 29.39C0.27 29.22 0.04 28.88 0.04 28.29C0.04 27.5 0.37 26.93 1.02 26.53C1.74 26.1 2.63 26.04 3.37 26.04C4.67 26.04 5.39 26.23 5.87 26.5C6.67 26.96 6.84 27.57 6.84 28.08C6.84 28.11 6.84 28.14 6.83 28.17L4.93 28.17C4.91 27.93 4.8 27.7 4.5 27.55C4.18 27.38 3.59 27.36 3.35 27.36C3 27.36 2.61 27.41 2.36 27.55C2.13 27.68 2 27.91 2 28.14C2 28.46 2.28 28.59 2.52 28.67C2.72 28.73 2.99 28.79 3.75 28.91L4.57 29.04C5.2 29.14 5.91 29.27 6.39 29.61C7 30.04 7.12 30.63 7.12 31.11C7.12 31.95 6.73 32.47 6.28 32.78C5.91 33.04 5.22 33.31 3.75 33.31C2.61 33.31 1.31 33.25 0.58 32.51C0.06 31.99 0 31.33 0 30.93L0 30.89ZM54.19 29.68C54.19 30.48 54.03 31.49 53.06 32.31C52.52 32.77 51.56 33.31 49.92 33.31C48.28 33.31 47.33 32.77 46.79 32.31C45.82 31.49 45.66 30.48 45.66 29.68C45.66 28.87 45.82 27.87 46.79 27.04C47.33 26.58 48.28 26.04 49.92 26.04C51.56 26.04 52.52 26.58 53.06 27.04C54.03 27.87 54.19 28.87 54.19 29.68ZM86.9 28.13L86.9 29.19L85.53 29.19L85.53 33.12L83.73 33.12L83.73 29.19L82.63 29.19L82.63 28.13L83.73 28.13L83.73 27.73C83.73 27.12 83.95 26.76 84.18 26.55C84.62 26.14 85.32 26.11 85.75 26.11C86.16 26.11 86.49 26.14 86.89 26.22L86.89 27.23C86.72 27.19 86.52 27.17 86.36 27.17C86.13 27.17 85.89 27.22 85.75 27.34C85.55 27.5 85.53 27.76 85.53 27.89L85.53 28.13L86.9 28.13ZM8.76 27.33L8.76 26.17L10.57 26.17L10.57 27.33L8.76 27.33ZM112.06 27.33L112.06 26.17L113.87 26.17L113.87 27.33L112.06 27.33ZM32.31 26.24L34.11 26.24L34.11 33.12L32.31 33.12L32.31 26.24ZM93.22 31.72L92.6 33.12L90.63 33.12L93.85 26.24L95.7 26.24L98.92 33.12L96.95 33.12L96.33 31.72L93.22 31.72ZM105.15 29.12L108.37 26.24L110.71 26.24L107.35 29.12L110.9 33.11L108.59 33.12L106.09 30.13L105.15 30.94L105.15 33.12L103.27 33.12L103.27 26.24L105.15 26.24L105.15 29.12ZM128.27 32.53L128.23 32.53C128.1 32.74 127.9 32.95 127.54 33.1C127.17 33.26 126.73 33.28 126.26 33.28C125.57 33.28 124.79 33.23 124.16 32.6C123.74 32.17 123.46 31.51 123.46 30.64C123.46 29.61 123.87 28.98 124.27 28.62C124.94 28.02 125.74 27.97 126.32 27.97C126.8 27.97 127.12 28.01 127.53 28.18C127.84 28.31 128.03 28.46 128.19 28.7L128.19 26.24L130 26.24L130 33.12L128.27 33.12L128.27 32.53ZM49.92 27.42C49.44 27.42 48.86 27.49 48.37 27.95C47.77 28.51 47.71 29.29 47.71 29.68C47.71 30.07 47.77 30.85 48.37 31.41C48.86 31.87 49.44 31.94 49.92 31.94C50.41 31.94 50.99 31.87 51.48 31.41C52.08 30.85 52.14 30.07 52.14 29.68C52.14 29.29 52.08 28.51 51.48 27.95C50.99 27.49 50.41 27.42 49.92 27.42ZM68.31 31.49L70.12 31.49C70.06 32.13 69.7 32.73 69 33.04C68.5 33.25 67.88 33.31 67.04 33.31C65.86 33.31 64.97 33.21 64.3 32.57C63.71 32 63.58 31.32 63.58 30.7C63.58 30.19 63.67 29.35 64.36 28.72C65.08 28.05 66.07 27.94 66.89 27.94C67.7 27.94 68.78 28.07 69.49 28.74C70.13 29.36 70.2 30.17 70.2 30.77L70.2 30.95L65.43 30.95L65.43 30.98C65.43 31.41 65.59 31.7 65.77 31.87C66.07 32.16 66.57 32.2 66.91 32.2C67.18 32.2 67.59 32.18 67.85 32.07C68.04 31.98 68.24 31.81 68.31 31.49ZM81.46 30.62C81.46 31.28 81.3 32.07 80.55 32.65C79.79 33.24 78.73 33.31 78.05 33.31C77.37 33.31 76.31 33.24 75.55 32.65C74.8 32.07 74.65 31.28 74.65 30.62C74.65 29.96 74.8 29.18 75.55 28.6C76.31 28.01 77.37 27.94 78.05 27.94C78.73 27.94 79.79 28.01 80.55 28.6C81.3 29.18 81.46 29.96 81.46 30.62ZM12.5 28.13L14.18 28.13L14.18 28.82C14.34 28.6 14.57 28.37 14.9 28.2C15.3 28 15.69 27.95 16.15 27.95C16.54 27.95 16.9 28 17.23 28.18C17.6 28.39 17.77 28.69 17.86 28.91C18.1 28.57 18.38 28.36 18.63 28.23C19.06 28.01 19.51 27.95 19.98 27.95C20.4 27.95 21.16 28 21.66 28.46C22.19 28.96 22.22 29.74 22.22 30.26L22.22 33.12L20.41 33.12L20.41 30.24C20.41 29.86 20.33 29.54 20.12 29.34C20 29.25 19.79 29.11 19.43 29.11C19.04 29.11 18.79 29.26 18.64 29.4C18.32 29.71 18.26 30.22 18.26 30.53L18.26 33.12L16.46 33.12L16.46 30.2C16.46 29.95 16.44 29.58 16.15 29.32C15.95 29.15 15.7 29.11 15.49 29.11C15.22 29.11 14.96 29.18 14.73 29.37C14.33 29.73 14.3 30.3 14.3 30.67L14.3 33.12L12.5 33.12L12.5 28.13ZM55.92 28.13L57.65 28.13L57.65 28.73C57.83 28.53 58.09 28.32 58.38 28.18C58.79 27.99 59.23 27.96 59.54 27.96C60.52 27.96 61.03 28.23 61.17 28.32C61.84 28.74 61.93 29.43 61.93 30.03L61.93 33.12L60.12 33.12L60.12 30.42C60.12 30.01 60.08 29.6 59.81 29.35C59.68 29.23 59.44 29.12 59.09 29.12C58.6 29.12 58.31 29.31 58.14 29.47C57.88 29.75 57.72 30.24 57.72 30.83L57.72 33.12L55.92 33.12L55.92 28.13ZM115.8 28.13L117.53 28.13L117.53 28.73C117.72 28.53 117.97 28.32 118.26 28.18C118.67 27.99 119.11 27.96 119.42 27.96C120.4 27.96 120.92 28.23 121.05 28.32C121.73 28.74 121.81 29.43 121.81 30.03L121.81 33.12L120 33.12L120 30.42C120 30.01 119.96 29.6 119.7 29.35C119.56 29.23 119.33 29.12 118.97 29.12C118.49 29.12 118.19 29.31 118.02 29.47C117.76 29.75 117.6 30.24 117.6 30.83L117.6 33.12L115.8 33.12L115.8 28.13ZM24.12 28.13L25.85 28.13L25.85 28.75L25.88 28.75C26.07 28.51 26.32 28.32 26.55 28.2C26.98 28 27.48 27.97 27.85 27.97C28.5 27.97 29.26 28.04 29.88 28.6C30.53 29.19 30.64 29.98 30.64 30.58C30.64 31.2 30.52 32.03 29.88 32.64C29.24 33.23 28.47 33.28 27.83 33.28C27.12 33.28 26.79 33.18 26.63 33.11C26.35 33 26.09 32.79 25.93 32.59L25.93 34.94L24.12 34.94L24.12 28.13ZM93.68 30.54L95.88 30.54L94.77 27.97L93.68 30.54ZM8.76 28.13L10.57 28.13L10.57 33.12L8.76 33.12L8.76 28.13ZM36.02 34.86L36.02 33.79C36.28 33.87 36.49 33.87 36.56 33.87C36.79 33.87 37.02 33.83 37.18 33.71C37.34 33.58 37.5 33.31 37.57 33.11L37.67 32.81L35.46 28.13L37.27 28.13L38.65 31.46L39.86 28.13L41.56 28.13L39.34 33.21C39.12 33.72 38.9 34.22 38.55 34.53C38.09 34.96 37.57 35 37.06 35C36.67 35 36.4 34.98 36.02 34.86ZM112.06 28.13L113.87 28.13L113.87 33.12L112.06 33.12L112.06 28.13ZM65.46 30.06L68.34 30.06C68.32 29.66 68.11 29.41 67.97 29.29C67.66 29.03 67.24 29 66.9 29C66.54 29 66.2 29.04 65.89 29.28C65.68 29.43 65.49 29.69 65.46 30.06ZM78.05 29.06C77.72 29.06 77.27 29.12 76.94 29.43C76.68 29.7 76.51 30.13 76.51 30.62C76.51 31.11 76.68 31.55 76.94 31.81C77.27 32.13 77.72 32.18 78.05 32.18C78.38 32.18 78.83 32.13 79.16 31.81C79.43 31.55 79.59 31.11 79.59 30.62C79.59 30.13 79.43 29.7 79.16 29.43C78.83 29.12 78.38 29.06 78.05 29.06ZM27.32 29.07C27 29.07 26.63 29.14 26.32 29.45C26.03 29.75 25.88 30.2 25.88 30.64C25.88 31.04 26 31.51 26.29 31.79C26.48 31.98 26.81 32.17 27.35 32.17C27.76 32.17 28.1 32.1 28.39 31.77C28.75 31.37 28.77 30.79 28.77 30.61C28.77 30.13 28.63 29.74 28.39 29.48C28.16 29.24 27.83 29.07 27.32 29.07ZM126.78 29.07C126.43 29.07 126.02 29.15 125.71 29.49C125.45 29.78 125.35 30.19 125.35 30.62C125.35 31.04 125.48 31.51 125.77 31.8C126.07 32.11 126.43 32.17 126.8 32.17C127.14 32.17 127.48 32.12 127.78 31.83C128.1 31.53 128.24 31.04 128.24 30.61C128.24 30.25 128.13 29.82 127.89 29.53C127.56 29.13 127.07 29.07 126.78 29.07Z"
        fill="#FFFFFF" fill-opacity="1.000000" fill-rule="evenodd" />
</svg>