<svg width="126.000000" height="18.000000" viewBox="0 0 126 18" fill="none"
    xmlns="http://www.w3.org/2000/svg" xmlns:xlink="http://www.w3.org/1999/xlink">
    <path id="Logo"
        d="M62.69 17.97C62.84 17.98 62.99 17.99 63.14 17.99L63.14 18L65.46 18C65.47 17.99 65.48 17.98 65.49 17.97C66.04 17.94 66.43 17.63 66.75 17.2C68.28 15.13 69.82 13.05 71.37 10.99C73.45 8.22 75.53 5.46 77.62 2.69C77.69 2.6 77.76 2.52 77.84 2.42L87.61 15.49L87.44 15.49C83.5 15.49 79.56 15.49 75.62 15.5C75.41 15.5 75.21 15.52 75.01 15.56C74.62 15.62 74.29 15.79 74.04 16.13C73.64 16.68 73.22 17.23 72.82 17.79C72.8 17.82 72.78 17.86 72.76 17.89L93.2 17.89C93.16 17.84 93.13 17.8 93.1 17.76C91.99 16.26 90.87 14.77 89.76 13.26C88.07 10.97 86.38 8.67 84.7 6.37C83.87 5.25 83.05 4.14 82.24 3.02C81.69 2.25 81.17 1.47 80.54 0.77C80.25 0.45 79.93 0.22 79.5 0.13C78.65 -0.04 77.79 -0.05 76.93 0.11C76.1 0.28 75.43 0.69 74.91 1.39C73.81 2.87 72.7 4.34 71.59 5.8C68.6 9.75 65.61 13.69 62.63 17.64C62.55 17.74 62.47 17.84 62.38 17.97C62.43 17.97 62.47 17.97 62.5 17.97L62.5 17.97L62.5 17.97C62.57 17.97 62.63 17.97 62.69 17.97ZM26.9 0.15C26.87 0.2 26.85 0.24 26.82 0.27C26.41 0.83 25.99 1.38 25.58 1.94C24.98 2.74 24.18 3.06 23.21 3.05C22.14 3.04 21.07 3.05 19.99 3.05C19.6 3.05 19.2 3.06 18.81 3.06L18.65 3.06C15.04 3.06 11.43 3.06 7.82 3.06C7.19 3.06 6.57 3.08 5.94 3.1C5.55 3.12 5.17 3.18 4.81 3.32C3.98 3.65 3.47 4.39 3.45 5.31C3.44 5.74 3.5 6.17 3.7 6.56C4.04 7.22 4.61 7.55 5.3 7.67C5.98 7.79 6.66 7.83 7.35 7.83C7.99 7.83 8.64 7.83 9.28 7.83C9.71 7.83 10.14 7.83 10.57 7.83C12.01 7.83 13.45 7.82 14.9 7.82C15.92 7.82 16.95 7.82 17.98 7.83C19.06 7.85 20.13 7.86 21.2 7.91C22.45 7.97 23.67 8.21 24.84 8.66C25.98 9.09 26.73 9.91 27.07 11.11C27.39 12.24 27.41 13.37 27.12 14.5C26.77 15.85 25.91 16.73 24.67 17.22C23.54 17.67 22.38 17.93 21.16 17.92C20.72 17.92 20.28 17.93 19.84 17.93C19.57 17.93 19.29 17.94 19.02 17.94C16.99 17.95 14.97 17.96 12.94 17.96C10.28 17.97 7.61 17.97 4.95 17.97C3.48 17.97 2.02 17.97 0.55 17.96L0.39 17.96C0.41 17.92 0.42 17.9 0.44 17.88C0.78 17.4 1.12 16.92 1.47 16.45C2.15 15.55 3.05 15.08 4.15 15.07C8.54 15.06 12.92 15.06 17.31 15.06C18.46 15.06 19.61 15.05 20.75 15.05C21.44 15.04 22.12 14.98 22.77 14.72C23.48 14.43 24 13.94 24.13 13.13C24.24 12.43 24.16 11.76 23.69 11.2C23.36 10.81 22.92 10.62 22.44 10.49C21.9 10.34 21.34 10.29 20.78 10.29C19.39 10.29 18 10.29 16.6 10.29C16.04 10.29 15.47 10.29 14.9 10.29C13.58 10.29 12.25 10.29 10.93 10.29C9.75 10.29 8.57 10.27 7.39 10.25C6.31 10.24 5.24 10.17 4.19 9.95C3.55 9.81 2.93 9.64 2.33 9.39C1.25 8.93 0.54 8.11 0.23 6.95C-0.09 5.77 -0.09 4.57 0.26 3.39C0.6 2.25 1.35 1.49 2.4 1.02C3.27 0.64 4.16 0.35 5.11 0.25C5.48 0.2 5.87 0.19 6.25 0.18C7.03 0.17 7.83 0.17 8.61 0.16C13.21 0.15 17.81 0.15 22.4 0.14C23.37 0.14 24.33 0.14 25.3 0.14C25.78 0.14 26.26 0.14 26.75 0.14L26.9 0.14L26.9 0.15ZM45.06 17.95C45.32 17.96 45.58 17.98 45.84 17.99L46.64 17.99C46.66 17.99 46.69 17.98 46.71 17.98C47.64 17.94 48.56 17.91 49.48 17.88C50.08 17.86 50.69 17.85 51.29 17.8C52.16 17.73 53.03 17.65 53.89 17.53C55.01 17.39 56.09 17.03 57.09 16.5C58.68 15.65 59.9 14.43 60.65 12.75C61.3 11.3 61.48 9.77 61.33 8.19C61.23 7.21 61.02 6.25 60.66 5.33C59.97 3.56 58.79 2.26 57.13 1.43C56.05 0.89 54.9 0.6 53.71 0.46C52.92 0.37 52.13 0.31 51.34 0.26C50.37 0.21 49.39 0.17 48.41 0.15C47.42 0.14 46.44 0.14 45.45 0.14C45.17 0.14 44.9 0.14 44.62 0.14C44.46 0.14 44.3 0.15 44.13 0.15C43.31 0.15 42.49 0.15 41.66 0.16C40.71 0.18 39.76 0.28 38.82 0.45C37.74 0.66 36.68 0.96 35.69 1.45C34.45 2.06 33.4 2.91 32.69 4.13C31.56 6.04 31.14 8.13 31.39 10.36C31.51 11.37 31.81 12.31 32.29 13.19C33.26 14.96 34.7 16.14 36.5 16.89C37.67 17.37 38.89 17.59 40.12 17.7C40.96 17.78 41.81 17.83 42.65 17.87C43.45 17.91 44.25 17.92 45.06 17.95ZM126 17.96L111.13 7.82L123.2 0.18L123.18 0.15L123.03 0.15C122.62 0.15 122.22 0.15 121.81 0.15C120.79 0.15 119.78 0.15 118.76 0.15C118.25 0.14 117.8 0.28 117.38 0.55C116.19 1.31 115 2.06 113.81 2.83C109.83 5.39 105.86 7.96 101.88 10.52C101.82 10.57 101.75 10.61 101.68 10.63C101.11 10.79 100.62 10.41 100.62 9.8L100.62 0.17L97.41 0.17L97.41 17.96L100.62 17.96L100.62 17.79C100.62 17.01 100.62 16.23 100.62 15.46C100.62 14.84 100.85 14.33 101.32 13.96C101.46 13.85 101.6 13.75 101.74 13.66C103.56 12.53 105.37 11.39 107.18 10.24C107.53 10.02 107.9 9.85 108.32 9.84C108.76 9.83 109.15 9.99 109.52 10.24C109.9 10.5 110.28 10.77 110.67 11.04L119.49 17.1C119.83 17.33 120.17 17.56 120.52 17.79C120.66 17.88 120.8 17.96 120.98 17.95C121.09 17.95 121.19 17.95 121.3 17.96C121.38 17.96 121.45 17.96 121.53 17.96L125.83 17.97C125.87 17.97 125.92 17.96 126 17.96ZM47.88 15.04L47.88 15.04C47.51 15.04 47.14 15.04 46.77 15.04L46.77 15.04C45.84 15.04 44.91 15.04 43.99 15.04C43.64 15.04 43.3 15.03 42.95 15.02C42.41 15.02 41.88 15.01 41.34 15.02C40.06 15.03 38.85 14.75 37.7 14.19C36.16 13.43 35.22 12.18 34.92 10.44C34.72 9.25 34.75 8.07 35.07 6.9C35.49 5.36 36.47 4.33 37.89 3.73C38.66 3.4 39.47 3.22 40.29 3.1C41.34 2.94 42.39 2.88 43.45 2.84C44.14 2.82 44.84 2.79 45.53 2.78L45.74 2.78C47.05 2.77 48.35 2.75 49.66 2.76C51.02 2.77 52.38 2.88 53.71 3.21C54.71 3.47 55.6 3.93 56.34 4.69C57.04 5.41 57.49 6.27 57.72 7.26C58.04 8.59 58.01 9.91 57.62 11.22C57.17 12.7 56.18 13.68 54.83 14.29C54.02 14.66 53.17 14.87 52.3 14.98C51.97 15.02 51.63 15.04 51.3 15.04C50.47 15.05 49.64 15.05 48.82 15.04C48.51 15.04 48.19 15.04 47.88 15.04Z"
        fill="#FFFFFF" fill-opacity="1.000000" fill-rule="evenodd" />
</svg>