<svg width="33.000000" height="33.000000" viewBox="0 0 33 33" fill="none"
    xmlns="http://www.w3.org/2000/svg" xmlns:xlink="http://www.w3.org/1999/xlink">
    <defs />
    <rect id="2" rx="7.333333" width="33.000000" height="33.000000" fill="#393939"
        fill-opacity="1.000000" />
    <g opacity="0.000000" />
    <path id="Vector"
        d="M10.98 25.25L24.09 12.14C24.93 11.3 24.93 9.95 24.09 9.12C23.25 8.28 21.9 8.28 21.06 9.12L7.96 22.22C7.12 23.06 7.12 24.41 7.96 25.25C8.79 26.09 10.14 26.09 10.98 25.25ZM22.59 13.64L19.56 10.62M14.51 6.59L14.07 8.11L14.51 9.62L13 9.18L11.48 9.62L11.93 8.11L11.48 6.59L13 7.04L14.51 6.59ZM10.48 12.64L10.03 14.16L10.48 15.67L8.96 15.23L7.45 15.67L7.9 14.16L7.45 12.64L8.96 13.09L10.48 12.64ZM25.6 17.69L25.16 19.2L25.6 20.71L24.09 20.27L22.58 20.71L23.02 19.2L22.58 17.69L24.09 18.13L25.6 17.69Z"
        stroke="#FFFFFF" stroke-opacity="1.000000" stroke-width="1.100000" stroke-linejoin="round"
        stroke-linecap="round" />
</svg>