<svg width="17.000000" height="16.000000" viewBox="0 0 17 16" fill="none"
    xmlns="http://www.w3.org/2000/svg" xmlns:xlink="http://www.w3.org/1999/xlink">
    <path id="Vector"
        d="M7.2 -0.5C3.22 -0.5 0 2.72 0 6.7C0 10.67 3.22 13.89 7.2 13.89C8.9 13.89 10.46 13.31 11.69 12.32L14.63 15.26C14.94 15.57 15.45 15.57 15.76 15.26C16.07 14.95 16.07 14.44 15.76 14.13L12.82 11.19C13.81 9.96 14.4 8.39 14.4 6.7C14.4 2.72 11.17 -0.5 7.2 -0.5ZM1.6 6.7C1.6 3.6 4.1 1.1 7.2 1.1C10.29 1.1 12.8 3.6 12.8 6.7C12.8 9.79 10.29 12.29 7.2 12.29C4.1 12.29 1.6 9.79 1.6 6.7Z"
        fill="#FFFFFF" fill-opacity="1.000000" fill-rule="evenodd" />
</svg>