<svg width="241.000000" height="30.000000" viewBox="0 0 241 30" fill="none"
    xmlns="http://www.w3.org/2000/svg" xmlns:xlink="http://www.w3.org/1999/xlink">
    <defs>
        <clipPath id="clip32_1053">
            <rect id="SOAK Q tag white 1" width="34.285713" height="30.000000"
                transform="translate(205.885498 0.000000)" fill="white" fill-opacity="0" />
        </clipPath>
    </defs>
    <rect id="SOAK Q tag white 1" width="34.285713" height="30.000000"
        transform="translate(205.885498 0.000000)" fill="#FFFFFF" fill-opacity="0" />
    <g clip-path="url(#clip32_1053)">
        <path id="Vector"
            d="M239.79 27.79L236.56 24.61C237.75 23.04 238.38 21.12 238.37 19.15L238.37 9.12C238.37 7.93 238.14 6.74 237.69 5.63C237.23 4.52 236.56 3.52 235.72 2.67C234.88 1.82 233.88 1.15 232.77 0.69C231.67 0.23 230.49 -0.01 229.3 0L214.97 0C213.78 -0.01 212.6 0.23 211.49 0.69C210.39 1.15 209.39 1.82 208.54 2.67C207.7 3.52 207.03 4.52 206.57 5.63C206.11 6.74 205.88 7.93 205.88 9.12L205.88 19.15C205.88 20.35 206.12 21.53 206.58 22.64C207.03 23.74 207.7 24.75 208.55 25.59C209.39 26.44 210.39 27.11 211.5 27.56C212.6 28.02 213.78 28.26 214.97 28.25L229.3 28.25C231.25 28.26 233.16 27.63 234.72 26.46L237.93 29.6C238.18 29.84 238.51 29.97 238.86 29.97C239.21 29.97 239.54 29.84 239.79 29.6C240.03 29.35 240.16 29.03 240.16 28.7C240.16 28.36 240.03 28.04 239.79 27.79ZM235.79 19.17C235.79 20.46 235.4 21.72 234.68 22.79L233.17 21.3C232.92 21.06 232.58 20.92 232.24 20.92C231.89 20.92 231.56 21.06 231.31 21.3C231.18 21.42 231.09 21.56 231.02 21.72C230.95 21.88 230.92 22.05 230.92 22.22C230.92 22.39 230.95 22.56 231.02 22.72C231.09 22.88 231.18 23.02 231.31 23.14L232.82 24.63C231.77 25.31 230.55 25.67 229.3 25.67L214.97 25.67C214.12 25.67 213.28 25.5 212.49 25.17C211.7 24.85 210.98 24.37 210.38 23.76C209.78 23.16 209.3 22.44 208.97 21.64C208.65 20.85 208.48 20 208.48 19.15L208.48 9.12C208.48 7.4 209.17 5.74 210.38 4.52C211.6 3.29 213.25 2.61 214.97 2.61L229.3 2.61C230.15 2.61 230.99 2.78 231.78 3.1C232.57 3.43 233.28 3.91 233.89 4.52C234.49 5.12 234.97 5.84 235.3 6.63C235.62 7.42 235.79 8.27 235.79 9.12L235.79 19.17Z"
            fill="#FFFFFF" fill-opacity="1.000000" fill-rule="nonzero" />
    </g>
    <path id="Vector"
        d="M63.51 27.33C60.45 27.33 57.82 27.01 55.68 26.38C53.56 25.75 51.83 24.91 50.52 23.87C49.26 22.88 48.29 21.63 47.69 20.23C47.08 18.76 46.77 17.2 46.78 15.63C46.77 14.06 47.07 12.5 47.69 11.03C48.29 9.63 49.26 8.38 50.52 7.39C51.83 6.35 53.57 5.51 55.68 4.88C57.82 4.25 60.46 3.93 63.52 3.93L75.34 3.93C78.4 3.93 81.04 4.25 83.18 4.88C85.29 5.51 87.03 6.35 88.34 7.39C89.59 8.38 90.57 9.63 91.17 11.03C91.78 12.5 92.09 14.06 92.08 15.63C92.09 17.2 91.78 18.76 91.17 20.23C90.56 21.63 89.59 22.87 88.34 23.86C87.03 24.91 85.29 25.75 83.18 26.37C81.04 27.01 78.4 27.33 75.34 27.33L63.51 27.33ZM63.6 7.68C61.42 7.68 59.58 7.88 58.15 8.27C56.66 8.67 55.45 9.23 54.55 9.95C53.65 10.65 52.97 11.56 52.59 12.58C52.24 13.57 52.06 14.59 52.07 15.63C52.06 16.66 52.24 17.69 52.59 18.67C52.97 19.69 53.65 20.6 54.55 21.3C55.45 22.02 56.67 22.59 58.15 22.99C59.58 23.37 61.4 23.57 63.56 23.57L75.3 23.57C77.45 23.57 79.27 23.38 80.71 22.99C82.19 22.59 83.41 22.02 84.31 21.3C85.21 20.6 85.89 19.69 86.27 18.67C86.62 17.69 86.8 16.66 86.79 15.63C86.8 14.59 86.62 13.57 86.27 12.58C85.89 11.56 85.21 10.65 84.31 9.95C83.4 9.23 82.19 8.66 80.71 8.27C79.27 7.88 77.45 7.68 75.3 7.68L63.6 7.68Z"
        fill="#FFFFFF" fill-opacity="1.000000" fill-rule="evenodd" />
    <path id="Vector"
        d="M-0.07 27.33L2.2 24.73C2.39 24.56 3.73 23.44 5.53 23.44L30.41 23.44C31.31 23.44 32.04 23.37 32.63 23.23C33.28 23.07 33.77 22.86 34.15 22.58C34.55 22.28 34.84 21.88 34.98 21.43C35.09 21.09 35.14 20.74 35.14 20.39C35.14 20.03 35.09 19.68 34.97 19.33C34.83 18.89 34.54 18.5 34.15 18.21C33.77 17.93 33.27 17.71 32.63 17.56C32.04 17.41 31.31 17.34 30.41 17.34L9.28 17.34C7.42 17.34 5.83 17.16 4.56 16.81C3.33 16.47 2.32 15.99 1.57 15.4C0.85 14.85 0.29 14.15 -0.05 13.36C-0.41 12.51 -0.59 11.6 -0.58 10.69C-0.59 9.8 -0.41 8.91 -0.05 8.07C0.29 7.28 0.85 6.58 1.57 6.02C2.32 5.43 3.34 4.95 4.57 4.59C5.84 4.23 7.43 4.04 9.28 4.04L39.92 4.04L37.8 6.47C37.7 6.57 36.36 7.93 34.03 7.93L9.45 7.93C8.55 7.93 7.82 8 7.23 8.14C6.57 8.3 6.07 8.53 5.68 8.83C5.3 9.13 5.02 9.52 4.88 9.95C4.77 10.28 4.72 10.63 4.71 10.98C4.71 11.34 4.77 11.69 4.88 12.04C5.02 12.48 5.31 12.87 5.71 13.16C6.08 13.44 6.58 13.65 7.23 13.81C7.82 13.96 8.54 14.02 9.44 14.02L30.57 14.02C32.41 14.02 33.99 14.2 35.28 14.56C36.52 14.9 37.53 15.37 38.29 15.97C39.01 16.52 39.56 17.22 39.91 18.01C40.27 18.86 40.45 19.76 40.44 20.67C40.45 21.57 40.27 22.46 39.91 23.3C39.56 24.09 39.01 24.79 38.29 25.34C37.53 25.94 36.52 26.42 35.27 26.77C33.99 27.14 32.41 27.32 30.57 27.32L-0.07 27.33Z"
        fill="#FFFFFF" fill-opacity="1.000000" fill-rule="evenodd" />
    <path id="Vector"
        d="M97.82 27.32C97.6 27.31 97.37 27.3 97.15 27.29C97 27.29 96.86 27.29 96.67 27.29C96.81 27.13 96.93 26.99 97.04 26.86C101.55 21.69 106.06 16.53 110.56 11.37C112.24 9.45 113.92 7.53 115.57 5.6C116.32 4.71 117.41 4.11 118.63 3.92C119.92 3.71 121.23 3.72 122.51 3.95C123.15 4.06 123.63 4.37 124.06 4.78C125.02 5.69 125.8 6.72 126.64 7.72C127.86 9.19 129.11 10.65 130.35 12.11C132.89 15.12 135.45 18.12 137.99 21.13C139.67 23.1 141.36 25.06 143.03 27.02C143.08 27.07 143.12 27.12 143.17 27.19L112.34 27.19C112.36 27.14 112.39 27.1 112.42 27.06C113.04 26.33 113.67 25.61 114.27 24.88C114.64 24.44 115.15 24.22 115.73 24.13C116.03 24.08 116.34 24.06 116.65 24.06C122.6 24.05 128.55 24.05 134.49 24.05L134.75 24.05L120 6.94C119.89 7.07 119.78 7.18 119.68 7.29C116.53 10.92 113.38 14.54 110.24 18.16C107.91 20.86 105.58 23.57 103.27 26.29C102.79 26.86 102.2 27.25 101.38 27.3C101.36 27.3 101.34 27.32 101.32 27.33L97.83 27.33L97.83 27.32L97.82 27.32Z"
        fill="#FFFFFF" fill-opacity="1.000000" fill-rule="nonzero" />
    <path id="Vector"
        d="M171.59 14.05L194.02 27.31C193.9 27.32 193.83 27.33 193.77 27.33L187.28 27.31C187 27.31 186.72 27.3 186.45 27.3C186.17 27.31 185.97 27.21 185.75 27.09C185.23 26.8 184.72 26.5 184.2 26.19L170.89 18.26C170.31 17.91 169.73 17.55 169.15 17.21C168.6 16.88 168 16.67 167.34 16.69C166.71 16.7 166.16 16.93 165.63 17.21C162.89 18.71 160.16 20.2 157.42 21.69C157.2 21.81 156.99 21.94 156.78 22.08C156.06 22.57 155.72 23.23 155.72 24.04C155.72 25.06 155.72 26.08 155.72 27.09L155.72 27.31L150.88 27.31L150.88 4.02L155.73 4.02L155.73 16.64C155.73 17.43 156.46 17.93 157.32 17.72C157.43 17.69 157.53 17.64 157.63 17.58C163.63 14.23 169.62 10.87 175.62 7.51C177.41 6.51 179.21 5.52 181 4.53C181.63 4.17 182.35 3.99 183.09 4C185.24 4.01 187.39 4 189.54 4L189.76 4L189.79 4.05L171.59 14.05Z"
        fill="#FFFFFF" fill-opacity="1.000000" fill-rule="nonzero" />
</svg>